<svg width="513" height="122" viewBox="0 0 513 122" fill="none" xmlns="http://www.w3.org/2000/svg">
<path fill-rule="evenodd" clip-rule="evenodd" d="M34.6344 16.333C33.1354 17.146 31.4484 18.674 30.8844 19.727C30.2584 20.898 29.8594 32 29.8594 48.285V74.928L32.7094 77.777C36.4914 81.56 40.8194 82.224 54.7454 81.161L66.3594 80.274L66.6364 66.09L66.9134 51.906L70.0954 49.229L73.2764 46.552L88.3174 46.913L103.359 47.274V37.594C103.359 27.084 101.976 23.625 96.7694 21.11C94.2054 19.872 49.4394 14.736 41.8594 14.81C39.3844 14.834 36.1334 15.52 34.6344 16.333ZM175.083 42.972C167.519 56.415 155.859 77.831 155.859 78.278C155.859 78.551 158.046 78.774 160.72 78.774C165.461 78.774 165.64 78.663 167.968 74.274L170.356 69.774H182.12H193.885L196.071 74.274C198.211 78.679 198.359 78.774 203.058 78.774H207.859L199.811 63.242C186.85 38.228 186.918 38.325 182.149 37.972C178.161 37.676 177.996 37.793 175.083 42.972ZM212.859 67.774V88.774H216.859H220.859V82.774C220.859 77.249 221.832 75.303 223.359 77.774C223.699 78.324 228.021 78.774 232.963 78.774C241.104 78.774 242.175 78.549 244.338 76.386C247.32 73.404 248.258 68.593 247.613 59.584C247.193 53.713 246.682 52.142 244.469 49.93C242.146 47.606 240.879 47.244 233.965 46.93C228.953 46.703 225.26 47.024 223.779 47.817C222.068 48.732 221.354 48.759 221.073 47.917C220.864 47.289 218.93 46.774 216.776 46.774H212.859V67.774ZM255.859 67.774V88.774H259.859H263.859V82.739C263.859 77.082 263.98 76.769 265.793 77.739C266.857 78.308 271.603 78.774 276.339 78.774C284.148 78.774 285.178 78.545 287.404 76.319C289.699 74.025 289.859 73.179 289.859 63.375C289.859 53.741 289.663 52.658 287.456 50.092C285.258 47.536 284.36 47.266 276.943 46.929C270.709 46.646 268.266 46.933 266.381 48.168C263.349 50.155 262.859 50.169 262.859 48.274C262.859 47.226 261.803 46.774 259.359 46.774H255.859V67.774ZM177.594 55.341L173.83 62.774H181.928C186.382 62.774 189.876 62.407 189.692 61.959C188.473 58.977 182.266 47.793 181.859 47.844C181.584 47.879 179.665 51.252 177.594 55.341ZM221.526 55.441C221.159 55.807 220.859 59.167 220.859 62.905C220.859 68.603 221.172 69.871 222.793 70.739C225.473 72.173 237.182 72.051 238.659 70.574C239.33 69.903 239.859 66.685 239.859 63.274C239.859 59.863 239.33 56.645 238.659 55.974C237.39 54.705 222.718 54.248 221.526 55.441ZM264.526 55.441C264.159 55.807 263.859 59.359 263.859 63.334C263.859 69.001 264.2 70.691 265.441 71.167C267.856 72.094 279.175 71.86 280.769 70.851C282.613 69.683 283.446 59.739 281.936 56.917C280.914 55.008 279.939 54.774 272.99 54.774C268.702 54.774 264.892 55.074 264.526 55.441Z" fill="#9CCD3C"/>
<path fill-rule="evenodd" clip-rule="evenodd" d="M309.032 34.5812C305.009 35.5212 301.016 39.6582 301.016 42.8862C301.016 44.1082 300.116 45.8782 299.016 46.8202C296.644 48.8512 296.295 53.5522 298.516 53.5522C299.769 53.5522 300.016 55.6082 300.016 66.0522V78.5522H305.016H310.016V66.0522V53.5522H312.409C314.848 53.5522 316.016 51.9062 316.016 48.4702C316.016 47.0062 315.307 46.5522 313.016 46.5522C309.078 46.5522 308.767 42.9772 312.579 41.5282C314.702 40.7212 315.089 40.0072 314.829 37.3802C314.471 33.7532 313.854 33.4552 309.032 34.5812ZM404.766 38.7142C402.499 39.5422 402.016 40.3182 402.016 43.1352C402.016 45.5062 401.557 46.5522 400.516 46.5522C399.691 46.5522 399.016 47.4152 399.016 48.4702C399.016 49.5252 398.743 51.1002 398.409 51.9702C397.974 53.1042 398.399 53.5522 399.909 53.5522C401.877 53.5522 402.016 54.0832 402.016 61.5842C402.016 74.4292 405.341 79.5522 413.679 79.5522C418.346 79.5522 418.483 79.4392 419.478 74.8022C420.163 71.6082 420.113 71.5522 416.571 71.5522C412.113 71.5522 411.016 69.2802 411.016 60.0532C411.016 53.8492 411.087 53.6772 413.766 53.3682C416.057 53.1052 416.568 52.5102 416.829 49.8022C417.121 46.7742 416.933 46.5522 414.079 46.5522C411.115 46.5522 411.016 46.4062 411.016 42.0522C411.016 37.1432 410.225 36.7212 404.766 38.7142ZM104.766 47.1022C104.354 47.5332 104.016 53.4102 104.016 60.1632C104.016 71.6212 103.859 72.6232 101.657 75.1832C99.3591 77.8552 98.9211 77.9472 84.4071 78.7972C76.2171 79.2772 68.9541 79.8542 68.2661 80.0792C66.6581 80.6072 66.5501 96.9172 68.1241 101.433C68.7791 103.31 70.4991 105.267 72.3231 106.211C75.8251 108.022 80.9311 107.806 108.858 104.667C124.821 102.873 125.273 102.757 128.358 99.6722L131.516 96.5142V75.0522V53.5902L128.516 50.5922C125.701 47.7792 124.899 47.5542 115.516 46.9562C110.016 46.6052 105.178 46.6712 104.766 47.1022ZM325.373 47.5442C321.101 49.2682 320.016 52.3362 320.016 62.6932C320.016 74.0392 320.329 75.1452 324.088 77.0892C327.409 78.8072 346.331 79.1432 350.499 77.5582C354.133 76.1772 356.036 71.0022 355.916 62.8342C355.782 53.6882 355.015 51.4682 351.076 48.8132C348.121 46.8222 346.515 46.5602 337.618 46.6152C332.062 46.6502 326.552 47.0682 325.373 47.5442ZM367.016 47.2612C363.285 48.6332 362.016 50.8642 362.016 56.0522C362.016 63.8012 363.721 64.9292 376.366 65.5522C386.393 66.0462 386.516 66.0822 386.516 68.5522V71.0522L374.266 71.3332C365.461 71.5352 362.012 71.9562 362.002 72.8332C361.995 73.5032 361.717 75.0652 361.386 76.3022L360.783 78.5522H376.827H392.871L394.943 75.9172C397.413 72.7782 397.675 66.9372 395.487 63.8132C393.481 60.9512 388.198 59.5642 379.266 59.5582C372.227 59.5522 372.016 59.4802 372.016 57.0852C372.016 54.6252 372.051 54.6172 383.227 54.3352L394.437 54.0522L395.094 50.8362C395.454 49.0662 395.51 47.3792 395.216 47.0862C394.517 46.3862 368.963 46.5462 367.016 47.2612ZM429.241 48.5092C425.026 51.1392 424.016 53.9742 424.016 63.1672C424.016 71.6792 425.743 76.1172 429.629 77.5952C431.013 78.1212 437.914 78.5522 444.964 78.5522C457.412 78.5522 457.8 78.4872 458.386 76.3022C459.657 71.5572 459.646 71.5522 447.216 71.5522C435.498 71.5522 433.016 70.9102 433.016 67.8812C433.016 66.9312 436.362 66.5402 446.266 66.3312L459.516 66.0522L459.433 59.2422C459.361 53.2432 459.031 52.1122 456.663 49.7422C454.126 47.2032 453.373 47.0362 443.246 46.7582C433.862 46.5022 432.105 46.7212 429.241 48.5092ZM467.016 62.5522V78.5522H471.016H475.016V68.2432C475.016 55.7032 475.808 54.1312 481.838 54.7062C485.852 55.0892 486.032 54.9832 486.612 51.8932C486.943 50.1272 486.918 48.2032 486.556 47.6172C485.645 46.1422 478.707 46.2782 477.091 47.8022C476.031 48.8022 475.674 48.8022 475.308 47.8022C475.048 47.0932 473.155 46.5522 470.933 46.5522H467.016V62.5522ZM329.721 55.1802C329.333 55.5682 329.016 59.1372 329.016 63.1122C329.016 71.4332 329.149 71.5602 337.848 71.5372C345.854 71.5152 346.162 71.1652 345.813 62.4642L345.516 55.0522L337.971 54.7642C333.821 54.6052 330.109 54.7932 329.721 55.1802ZM433.623 56.1342C432.054 60.2242 432.677 60.5522 442.016 60.5522C451.355 60.5522 451.978 60.2242 450.409 56.1342C449.522 53.8212 434.51 53.8212 433.623 56.1342Z" fill="#1C448C"/>
</svg>
